<svg width="68" height="50" viewBox="0 0 68 50" fill="none" xmlns="http://www.w3.org/2000/svg">
<rect x="23" y="4.27661" width="21" height="16.7234" stroke="#F9A26C" stroke-width="2" stroke-linecap="round" stroke-linejoin="round"/>
<path d="M38 0V9.3617" stroke="#F9A26C" stroke-width="2"/>
<path d="M30 0V9.3617" stroke="#F9A26C" stroke-width="2"/>
<path d="M18.1782 35.012H19.3182C19.2542 34.556 19.1182 34.156 18.9102 33.812C18.7022 33.46 18.4422 33.168 18.1302 32.936C17.8182 32.704 17.4622 32.528 17.0622 32.408C16.6622 32.288 16.2382 32.228 15.7902 32.228C15.1342 32.228 14.5502 32.348 14.0382 32.588C13.5342 32.82 13.1102 33.14 12.7662 33.548C12.4302 33.956 12.1742 34.436 11.9982 34.988C11.8222 35.532 11.7342 36.116 11.7342 36.74C11.7342 37.364 11.8142 37.948 11.9742 38.492C12.1422 39.036 12.3902 39.508 12.7182 39.908C13.0462 40.308 13.4582 40.624 13.9542 40.856C14.4502 41.08 15.0302 41.192 15.6942 41.192C16.7902 41.192 17.6542 40.892 18.2862 40.292C18.9182 39.692 19.2902 38.852 19.4022 37.772H18.2622C18.2382 38.124 18.1662 38.452 18.0462 38.756C17.9262 39.06 17.7582 39.324 17.5422 39.548C17.3342 39.764 17.0822 39.936 16.7862 40.064C16.4982 40.184 16.1662 40.244 15.7902 40.244C15.2782 40.244 14.8382 40.148 14.4702 39.956C14.1022 39.764 13.7982 39.508 13.5582 39.188C13.3262 38.86 13.1542 38.48 13.0422 38.048C12.9302 37.608 12.8742 37.144 12.8742 36.656C12.8742 36.208 12.9302 35.776 13.0422 35.36C13.1542 34.944 13.3262 34.576 13.5582 34.256C13.7982 33.928 14.0982 33.668 14.4582 33.476C14.8262 33.284 15.2662 33.188 15.7782 33.188C16.3782 33.188 16.8942 33.34 17.3262 33.644C17.7662 33.948 18.0502 34.404 18.1782 35.012ZM25.7324 40.976C25.5564 41.08 25.3124 41.132 25.0004 41.132C24.7364 41.132 24.5244 41.06 24.3644 40.916C24.2124 40.764 24.1364 40.52 24.1364 40.184C23.8564 40.52 23.5284 40.764 23.1524 40.916C22.7844 41.06 22.3844 41.132 21.9524 41.132C21.6724 41.132 21.4044 41.1 21.1484 41.036C20.9004 40.972 20.6844 40.872 20.5004 40.736C20.3164 40.6 20.1684 40.424 20.0564 40.208C19.9524 39.984 19.9004 39.716 19.9004 39.404C19.9004 39.052 19.9604 38.764 20.0804 38.54C20.2004 38.316 20.3564 38.136 20.5484 38C20.7484 37.856 20.9724 37.748 21.2204 37.676C21.4764 37.604 21.7364 37.544 22.0004 37.496C22.2804 37.44 22.5444 37.4 22.7924 37.376C23.0484 37.344 23.2724 37.304 23.4644 37.256C23.6564 37.2 23.8084 37.124 23.9204 37.028C24.0324 36.924 24.0884 36.776 24.0884 36.584C24.0884 36.36 24.0444 36.18 23.9564 36.044C23.8764 35.908 23.7684 35.804 23.6324 35.732C23.5044 35.66 23.3564 35.612 23.1884 35.588C23.0284 35.564 22.8684 35.552 22.7084 35.552C22.2764 35.552 21.9164 35.636 21.6284 35.804C21.3404 35.964 21.1844 36.272 21.1604 36.728H20.1404C20.1564 36.344 20.2364 36.02 20.3804 35.756C20.5244 35.492 20.7164 35.28 20.9564 35.12C21.1964 34.952 21.4684 34.832 21.7724 34.76C22.0844 34.688 22.4164 34.652 22.7684 34.652C23.0484 34.652 23.3244 34.672 23.5964 34.712C23.8764 34.752 24.1284 34.836 24.3524 34.964C24.5764 35.084 24.7564 35.256 24.8924 35.48C25.0284 35.704 25.0964 35.996 25.0964 36.356V39.548C25.0964 39.788 25.1084 39.964 25.1324 40.076C25.1644 40.188 25.2604 40.244 25.4204 40.244C25.5084 40.244 25.6124 40.224 25.7324 40.184V40.976ZM24.0764 37.796C23.9484 37.892 23.7804 37.964 23.5724 38.012C23.3644 38.052 23.1444 38.088 22.9124 38.12C22.6884 38.144 22.4604 38.176 22.2284 38.216C21.9964 38.248 21.7884 38.304 21.6044 38.384C21.4204 38.464 21.2684 38.58 21.1484 38.732C21.0364 38.876 20.9804 39.076 20.9804 39.332C20.9804 39.5 21.0124 39.644 21.0764 39.764C21.1484 39.876 21.2364 39.968 21.3404 40.04C21.4524 40.112 21.5804 40.164 21.7244 40.196C21.8684 40.228 22.0204 40.244 22.1804 40.244C22.5164 40.244 22.8044 40.2 23.0444 40.112C23.2844 40.016 23.4804 39.9 23.6324 39.764C23.7844 39.62 23.8964 39.468 23.9684 39.308C24.0404 39.14 24.0764 38.984 24.0764 38.84V37.796ZM26.3317 32.432V41H27.3517V32.432H26.3317ZM32.8298 37.304H29.2658C29.2818 37.064 29.3338 36.84 29.4218 36.632C29.5098 36.416 29.6298 36.228 29.7818 36.068C29.9338 35.908 30.1138 35.784 30.3218 35.696C30.5378 35.6 30.7778 35.552 31.0418 35.552C31.2978 35.552 31.5298 35.6 31.7378 35.696C31.9538 35.784 32.1378 35.908 32.2898 36.068C32.4498 36.22 32.5738 36.404 32.6618 36.62C32.7578 36.836 32.8138 37.064 32.8298 37.304ZM33.8138 39.032H32.8058C32.7178 39.44 32.5338 39.744 32.2538 39.944C31.9818 40.144 31.6298 40.244 31.1978 40.244C30.8618 40.244 30.5698 40.188 30.3218 40.076C30.0738 39.964 29.8698 39.816 29.7098 39.632C29.5498 39.44 29.4338 39.224 29.3618 38.984C29.2898 38.736 29.2578 38.476 29.2658 38.204H33.9098C33.9258 37.828 33.8898 37.432 33.8018 37.016C33.7218 36.6 33.5698 36.216 33.3458 35.864C33.1298 35.512 32.8378 35.224 32.4698 35C32.1098 34.768 31.6538 34.652 31.1018 34.652C30.6778 34.652 30.2858 34.732 29.9258 34.892C29.5738 35.052 29.2658 35.276 29.0018 35.564C28.7458 35.852 28.5458 36.192 28.4018 36.584C28.2578 36.976 28.1858 37.408 28.1858 37.88C28.2018 38.352 28.2698 38.788 28.3898 39.188C28.5178 39.588 28.7058 39.932 28.9538 40.22C29.2018 40.508 29.5058 40.732 29.8658 40.892C30.2338 41.052 30.6658 41.132 31.1618 41.132C31.8658 41.132 32.4498 40.956 32.9138 40.604C33.3778 40.252 33.6778 39.728 33.8138 39.032ZM34.5571 34.796V41H35.5771V37.496C35.5771 37.216 35.6131 36.96 35.6851 36.728C35.7651 36.488 35.8811 36.28 36.0331 36.104C36.1851 35.928 36.3731 35.792 36.5971 35.696C36.8291 35.6 37.1011 35.552 37.4131 35.552C37.8051 35.552 38.1131 35.664 38.3371 35.888C38.5611 36.112 38.6731 36.416 38.6731 36.8V41H39.6931V36.92C39.6931 36.584 39.6571 36.28 39.5851 36.008C39.5211 35.728 39.4051 35.488 39.2371 35.288C39.0691 35.088 38.8491 34.932 38.5771 34.82C38.3051 34.708 37.9651 34.652 37.5571 34.652C36.6371 34.652 35.9651 35.028 35.5411 35.78H35.5171V34.796H34.5571ZM41.5591 37.952C41.5591 37.648 41.5911 37.352 41.6551 37.064C41.7191 36.776 41.8231 36.52 41.9671 36.296C42.1111 36.072 42.3031 35.892 42.5431 35.756C42.7831 35.62 43.0751 35.552 43.4191 35.552C43.7711 35.552 44.0711 35.62 44.3191 35.756C44.5671 35.884 44.7671 36.056 44.9191 36.272C45.0791 36.488 45.1951 36.74 45.2671 37.028C45.3391 37.308 45.3751 37.6 45.3751 37.904C45.3751 38.192 45.3391 38.476 45.2671 38.756C45.2031 39.036 45.0951 39.288 44.9431 39.512C44.7911 39.728 44.5951 39.904 44.3551 40.04C44.1151 40.176 43.8231 40.244 43.4791 40.244C43.1511 40.244 42.8631 40.18 42.6151 40.052C42.3751 39.924 42.1751 39.752 42.0151 39.536C41.8631 39.32 41.7471 39.076 41.6671 38.804C41.5951 38.524 41.5591 38.24 41.5591 37.952ZM46.3591 41V32.432H45.3391V35.624H45.3151C45.2031 35.44 45.0631 35.288 44.8951 35.168C44.7351 35.04 44.5631 34.94 44.3791 34.868C44.1951 34.788 44.0111 34.732 43.8271 34.7C43.6431 34.668 43.4711 34.652 43.3111 34.652C42.8391 34.652 42.4231 34.74 42.0631 34.916C41.7111 35.084 41.4151 35.316 41.1751 35.612C40.9431 35.9 40.7671 36.24 40.6471 36.632C40.5351 37.024 40.4791 37.44 40.4791 37.88C40.4791 38.32 40.5391 38.736 40.6591 39.128C40.7791 39.52 40.9551 39.864 41.1871 40.16C41.4271 40.456 41.7231 40.692 42.0751 40.868C42.4351 41.044 42.8551 41.132 43.3351 41.132C43.7671 41.132 44.1631 41.056 44.5231 40.904C44.8831 40.752 45.1471 40.504 45.3151 40.16H45.3391V41H46.3591ZM53.0144 40.976C52.8384 41.08 52.5944 41.132 52.2824 41.132C52.0184 41.132 51.8064 41.06 51.6464 40.916C51.4944 40.764 51.4184 40.52 51.4184 40.184C51.1384 40.52 50.8104 40.764 50.4344 40.916C50.0664 41.06 49.6664 41.132 49.2344 41.132C48.9544 41.132 48.6864 41.1 48.4304 41.036C48.1824 40.972 47.9664 40.872 47.7824 40.736C47.5984 40.6 47.4504 40.424 47.3384 40.208C47.2344 39.984 47.1824 39.716 47.1824 39.404C47.1824 39.052 47.2424 38.764 47.3624 38.54C47.4824 38.316 47.6384 38.136 47.8304 38C48.0304 37.856 48.2544 37.748 48.5024 37.676C48.7584 37.604 49.0184 37.544 49.2824 37.496C49.5624 37.44 49.8264 37.4 50.0744 37.376C50.3304 37.344 50.5544 37.304 50.7464 37.256C50.9384 37.2 51.0904 37.124 51.2024 37.028C51.3144 36.924 51.3704 36.776 51.3704 36.584C51.3704 36.36 51.3264 36.18 51.2384 36.044C51.1584 35.908 51.0504 35.804 50.9144 35.732C50.7864 35.66 50.6384 35.612 50.4704 35.588C50.3104 35.564 50.1504 35.552 49.9904 35.552C49.5584 35.552 49.1984 35.636 48.9104 35.804C48.6224 35.964 48.4664 36.272 48.4424 36.728H47.4224C47.4384 36.344 47.5184 36.02 47.6624 35.756C47.8064 35.492 47.9984 35.28 48.2384 35.12C48.4784 34.952 48.7504 34.832 49.0544 34.76C49.3664 34.688 49.6984 34.652 50.0504 34.652C50.3304 34.652 50.6064 34.672 50.8784 34.712C51.1584 34.752 51.4104 34.836 51.6344 34.964C51.8584 35.084 52.0384 35.256 52.1744 35.48C52.3104 35.704 52.3784 35.996 52.3784 36.356V39.548C52.3784 39.788 52.3904 39.964 52.4144 40.076C52.4464 40.188 52.5424 40.244 52.7024 40.244C52.7904 40.244 52.8944 40.224 53.0144 40.184V40.976ZM51.3584 37.796C51.2304 37.892 51.0624 37.964 50.8544 38.012C50.6464 38.052 50.4264 38.088 50.1944 38.12C49.9704 38.144 49.7424 38.176 49.5104 38.216C49.2784 38.248 49.0704 38.304 48.8864 38.384C48.7024 38.464 48.5504 38.58 48.4304 38.732C48.3184 38.876 48.2624 39.076 48.2624 39.332C48.2624 39.5 48.2944 39.644 48.3584 39.764C48.4304 39.876 48.5184 39.968 48.6224 40.04C48.7344 40.112 48.8624 40.164 49.0064 40.196C49.1504 40.228 49.3024 40.244 49.4624 40.244C49.7984 40.244 50.0864 40.2 50.3264 40.112C50.5664 40.016 50.7624 39.9 50.9144 39.764C51.0664 39.62 51.1784 39.468 51.2504 39.308C51.3224 39.14 51.3584 38.984 51.3584 38.84V37.796ZM53.5177 34.796V41H54.5377V38.24C54.5377 37.84 54.5777 37.488 54.6577 37.184C54.7377 36.872 54.8657 36.608 55.0417 36.392C55.2177 36.176 55.4497 36.012 55.7377 35.9C56.0257 35.788 56.3737 35.732 56.7817 35.732V34.652C56.2297 34.636 55.7737 34.748 55.4137 34.988C55.0537 35.228 54.7497 35.6 54.5017 36.104H54.4777V34.796H53.5177Z" fill="#F9A26C"/>
</svg>
