<svg width="95" height="76" viewBox="0 0 95 76" fill="none" xmlns="http://www.w3.org/2000/svg">
<g opacity="0.7">
<ellipse cx="47.5003" cy="27.631" rx="18.6311" ry="47.4997" transform="rotate(90 47.5003 27.631)" fill="#F9A26C"/>
<rect x="94.9995" y="27.6309" width="48.3691" height="94.9994" transform="rotate(90 94.9995 27.6309)" fill="#F9A26C"/>
</g>
<path d="M32.4246 36.0002C29.4888 36.0002 27.0996 33.5774 27.0996 30.6002C27.0996 27.623 29.4888 25.2002 32.4246 25.2002C35.3605 25.2002 37.7496 27.623 37.7496 30.6002C37.7496 33.5774 35.3605 36.0002 32.4246 36.0002ZM32.4246 28.8002C31.4448 28.8002 30.6496 29.6066 30.6496 30.6002C30.6496 31.5938 31.4448 32.4002 32.4246 32.4002C33.4044 32.4002 34.1996 31.5938 34.1996 30.6002C34.1996 29.6066 33.4044 28.8002 32.4246 28.8002Z" fill="black"/>
<path d="M64.3748 36.0002C61.439 36.0002 59.0498 33.5774 59.0498 30.6002C59.0498 27.623 61.439 25.2002 64.3748 25.2002C67.3107 25.2002 69.6998 27.623 69.6998 30.6002C69.6998 33.5774 67.3107 36.0002 64.3748 36.0002ZM64.3748 28.8002C63.395 28.8002 62.5998 29.6066 62.5998 30.6002C62.5998 31.5938 63.395 32.4002 64.3748 32.4002C65.3546 32.4002 66.1498 31.5938 66.1498 30.6002C66.1498 29.6066 65.3546 28.8002 64.3748 28.8002Z" fill="black"/>
<path d="M73.1009 21.2652C72.6394 18.414 71.1377 9.6948 69.5118 6.3936C68.4291 4.1976 65.6494 2.5164 61.2545 1.404C57.6832 0.5004 53.1179 0 48.4 0C43.682 0 39.1167 0.496799 35.5454 1.404C31.1505 2.52 28.3709 4.1976 27.2881 6.3936C25.6622 9.6912 24.1606 18.414 23.6991 21.2652C21.2177 22.9896 20 25.4844 20 28.8V37.8C20 40.1472 21.4839 42.1488 23.55 42.8904V46.8C23.55 48.7836 25.1439 50.4 27.1 50.4H30.65C32.606 50.4 34.2 48.7836 34.2 46.8V43.2H62.6V46.8C62.6 48.7836 64.1939 50.4 66.15 50.4H69.7C71.656 50.4 73.25 48.7836 73.25 46.8V42.8904C75.3161 42.1488 76.8 40.1472 76.8 37.8V28.8C76.8 25.4844 75.5823 22.9896 73.1009 21.2652ZM30.4618 8.0064C31.5162 5.8716 38.1582 3.6 48.4 3.6C58.6417 3.6 65.2838 5.868 66.3381 8.0064C67.357 10.0764 68.4894 15.552 69.1888 19.4652C68.8409 19.3608 68.4823 19.2636 68.1131 19.1772C67.1653 18.9504 66.1429 18.7668 65.0495 18.6156L54.758 11.1384C53.9628 10.5588 52.8517 10.746 52.2801 11.5524C51.7086 12.3588 51.8932 13.4856 52.6884 14.0652L58.2477 18.1044C55.2302 18.0036 51.9216 18.0036 48.3964 18.0036C47.9811 18.0036 47.5693 18.0036 47.1575 18.0036L36.9548 11.106C36.1383 10.5552 35.0378 10.7784 34.4946 11.6064C33.9515 12.4344 34.1716 13.5504 34.9881 14.1012L40.8243 18.0468C36.0637 18.1332 31.9244 18.396 28.6833 19.1772C28.3141 19.2672 27.9555 19.3644 27.6076 19.4652C28.3105 15.552 29.4394 10.0764 30.4618 8.0064ZM30.65 46.8H27.1V43.2H30.65V46.8ZM66.15 46.8V43.2H69.7V46.8H66.15ZM73.25 37.8C73.25 38.7936 72.4548 39.6 71.475 39.6H25.325C24.3452 39.6 23.55 38.7936 23.55 37.8V28.8C23.55 25.4736 25.2753 23.6988 29.5069 22.6764C33.9621 21.6 40.6539 21.6 48.4 21.6C56.1461 21.6 62.8343 21.6 67.2931 22.6764C71.5247 23.6988 73.25 25.4736 73.25 28.8V37.8Z" fill="black"/>
</svg>
