<svg width="36" height="47" viewBox="0 0 36 47" fill="none" xmlns="http://www.w3.org/2000/svg">
<path d="M28.8333 1L8 1.00018M28.8333 16.2285L8 16.2287M28.8333 8.61425L8 8.61443" stroke="white" stroke-width="2"/>
<path d="M9.99436 29.432V38H15.6704V37.04H11.1344V29.432H9.99436ZM17.1643 30.68V29.432H16.1443V30.68H17.1643ZM16.1443 31.796V38H17.1643V31.796H16.1443ZM18.9585 36.044H17.9385C17.9545 36.428 18.0345 36.756 18.1785 37.028C18.3225 37.292 18.5145 37.508 18.7545 37.676C18.9945 37.836 19.2705 37.952 19.5825 38.024C19.8945 38.096 20.2225 38.132 20.5665 38.132C20.8785 38.132 21.1905 38.1 21.5025 38.036C21.8225 37.98 22.1065 37.876 22.3545 37.724C22.6105 37.572 22.8145 37.372 22.9665 37.124C23.1265 36.876 23.2065 36.564 23.2065 36.188C23.2065 35.892 23.1465 35.644 23.0265 35.444C22.9145 35.244 22.7625 35.08 22.5705 34.952C22.3865 34.816 22.1705 34.708 21.9225 34.628C21.6825 34.548 21.4345 34.48 21.1785 34.424C20.9385 34.368 20.6985 34.316 20.4585 34.268C20.2185 34.212 20.0025 34.148 19.8105 34.076C19.6185 33.996 19.4585 33.9 19.3305 33.788C19.2105 33.668 19.1505 33.52 19.1505 33.344C19.1505 33.184 19.1905 33.056 19.2705 32.96C19.3505 32.856 19.4545 32.776 19.5825 32.72C19.7105 32.656 19.8505 32.612 20.0025 32.588C20.1625 32.564 20.3185 32.552 20.4705 32.552C20.6385 32.552 20.8025 32.572 20.9625 32.612C21.1305 32.644 21.2825 32.7 21.4185 32.78C21.5545 32.86 21.6665 32.968 21.7545 33.104C21.8425 33.232 21.8945 33.396 21.9105 33.596H22.9305C22.9065 33.22 22.8265 32.908 22.6905 32.66C22.5545 32.404 22.3705 32.204 22.1385 32.06C21.9145 31.908 21.6545 31.804 21.3585 31.748C21.0625 31.684 20.7385 31.652 20.3865 31.652C20.1145 31.652 19.8385 31.688 19.5585 31.76C19.2865 31.824 19.0385 31.928 18.8145 32.072C18.5985 32.208 18.4185 32.388 18.2745 32.612C18.1385 32.836 18.0705 33.104 18.0705 33.416C18.0705 33.816 18.1705 34.128 18.3705 34.352C18.5705 34.576 18.8185 34.752 19.1145 34.88C19.4185 35 19.7465 35.096 20.0985 35.168C20.4505 35.232 20.7745 35.308 21.0705 35.396C21.3745 35.476 21.6265 35.584 21.8265 35.72C22.0265 35.856 22.1265 36.056 22.1265 36.32C22.1265 36.512 22.0785 36.672 21.9825 36.8C21.8865 36.92 21.7625 37.012 21.6105 37.076C21.4665 37.14 21.3065 37.184 21.1305 37.208C20.9545 37.232 20.7865 37.244 20.6265 37.244C20.4185 37.244 20.2145 37.224 20.0145 37.184C19.8225 37.144 19.6465 37.08 19.4865 36.992C19.3345 36.896 19.2105 36.772 19.1145 36.62C19.0185 36.46 18.9665 36.268 18.9585 36.044ZM25.3405 31.796V29.936H24.3205V31.796H23.2645V32.696H24.3205V36.644C24.3205 36.932 24.3485 37.164 24.4045 37.34C24.4605 37.516 24.5445 37.652 24.6565 37.748C24.7765 37.844 24.9285 37.912 25.1125 37.952C25.3045 37.984 25.5325 38 25.7965 38H26.5765V37.1H26.1085C25.9485 37.1 25.8165 37.096 25.7125 37.088C25.6165 37.072 25.5405 37.044 25.4845 37.004C25.4285 36.964 25.3885 36.908 25.3645 36.836C25.3485 36.764 25.3405 36.668 25.3405 36.548V32.696H26.5765V31.796H25.3405Z" fill="white"/>
</svg>
