<svg width="156" height="78" viewBox="0 0 156 78" fill="none" xmlns="http://www.w3.org/2000/svg">
<path d="M12.8353 48.6841C18.0193 48.6841 21.6913 45.6241 22.9873 43.2841C23.2393 42.8161 23.3833 42.3841 23.3833 42.0601C23.3833 41.4841 22.9513 41.1241 22.5193 41.1241C21.9793 41.1241 21.6913 41.5201 21.4753 41.8081C19.6393 44.4721 16.9393 45.9481 13.8433 45.9481C8.40726 45.9481 4.66326 41.4121 4.66326 35.0401C4.66326 28.7761 8.37126 24.0961 13.2313 24.0961C16.0393 24.0961 18.3433 25.8241 21.0073 29.2441C21.4753 29.8201 21.7993 30.1081 22.1953 30.1081C22.5553 30.1081 23.0233 29.8201 23.0233 29.2441C23.0233 28.6321 22.6993 28.1641 22.0153 26.5081L20.8993 23.6641C20.3233 22.2961 19.9993 21.8281 19.4233 21.8281C18.6673 21.8281 18.6673 22.8001 17.9113 22.8001C17.1553 22.8001 15.2473 21.9361 12.7273 21.9361C6.21126 21.9361 0.739258 27.6961 0.739258 35.7601C0.739258 43.9681 6.53526 48.6841 12.8353 48.6841Z" fill="white"/>
<path d="M49.3857 44.4721V26.0761C49.3857 23.6641 51.7977 24.5281 51.7977 23.1241C51.7977 22.7641 51.5457 22.4041 50.8977 22.4041C50.0697 22.4041 48.9537 22.5121 47.5857 22.5121C46.2177 22.5121 45.1017 22.4041 44.3097 22.4041C43.6617 22.4041 43.4097 22.7641 43.4097 23.1241C43.4097 24.5281 45.7857 23.6641 45.7857 26.0761V33.2761C45.7857 33.8521 45.6057 34.0681 44.8137 34.0681H32.9697C32.1417 34.0681 31.9617 33.8521 31.9617 33.2761V26.0761C31.9617 23.6641 34.3377 24.5281 34.3377 23.1241C34.3377 22.7641 34.0857 22.4041 33.4377 22.4041C32.6457 22.4041 31.4937 22.5121 30.1257 22.5121C28.7577 22.5121 27.7137 22.4041 26.8857 22.4041C26.2377 22.4041 25.9497 22.7641 25.9497 23.1241C25.9497 24.5281 28.3617 23.6641 28.3617 26.0761V44.4721C28.3617 46.8841 25.9497 45.9841 25.9497 47.3881C25.9497 47.7841 26.2377 48.1081 26.8497 48.1081C27.6777 48.1081 28.7577 48.0001 30.1257 48.0001C31.4937 48.0001 32.6457 48.1081 33.4377 48.1081C34.0857 48.1081 34.3377 47.7841 34.3377 47.3881C34.3377 45.9841 31.9617 46.8841 31.9617 44.4721V36.8041C31.9617 36.2641 32.1417 36.0121 32.9697 36.0121H44.8137C45.6057 36.0121 45.7857 36.2641 45.7857 36.8041V44.4721C45.7857 46.8841 43.4097 45.9841 43.4097 47.3881C43.4097 47.7841 43.6617 48.1081 44.3097 48.1081C45.1017 48.1081 46.2177 48.0001 47.5857 48.0001C48.9537 48.0001 50.0697 48.1081 50.8977 48.1081C51.5457 48.1081 51.7977 47.7841 51.7977 47.3881C51.7977 45.9841 49.3857 46.8841 49.3857 44.4721Z" fill="white"/>
<path d="M76.7319 44.3641L70.7559 29.4961C70.0719 27.7321 69.3519 25.8961 68.8479 24.4921C68.1639 22.5121 68.0919 22.2961 66.3639 22.2961C64.5639 22.2961 64.4559 22.5121 63.7719 24.4921C63.3039 25.8961 62.5839 27.7321 61.8999 29.4961L55.9239 44.4721C54.9879 46.8121 53.1519 46.1281 53.1519 47.4241C53.1519 47.8201 53.4759 48.1081 54.0159 48.1081C54.5919 48.1081 55.3479 48.0001 56.4639 48.0001C57.6159 48.0001 58.5519 48.1081 59.4879 48.1081C60.1719 48.1081 60.5679 47.8561 60.5679 47.3521C60.5679 46.2361 58.1559 46.4881 58.1559 45.1921C58.1559 44.9041 58.2639 44.5801 58.4439 44.1481L60.3159 39.4681C60.4959 38.9641 60.7119 38.8201 61.2519 38.8201H70.0359C70.6119 38.8201 70.7919 38.9641 70.9719 39.4681L72.8799 44.1841C73.0599 44.6161 73.1319 44.9401 73.1319 45.2641C73.1319 46.5241 70.7559 46.2001 70.7559 47.3521C70.7559 47.8561 71.1519 48.1081 71.8359 48.1081C72.7719 48.1081 74.3559 48.0001 75.7239 48.0001C77.0919 48.0001 78.1359 48.1081 78.7119 48.1081C79.1799 48.1081 79.5039 47.8561 79.5039 47.4601C79.5039 46.1641 77.6679 46.7761 76.7319 44.3641ZM69.3159 36.8761H61.8639C61.5759 36.8761 61.3599 36.6961 61.5399 36.3361L65.6439 26.0401L69.7839 36.3721C69.8919 36.6601 69.7479 36.8761 69.3159 36.8761Z" fill="white"/>
<path d="M100.808 44.0041L96.3797 38.1361C100.052 37.1641 102.464 34.4281 102.464 30.6481C102.464 25.7521 98.4677 22.3321 90.5477 22.3321C88.6757 22.3321 86.4797 22.5121 84.9677 22.5121C83.7077 22.5121 82.5557 22.4041 81.7997 22.4041C81.1157 22.4041 80.8637 22.7641 80.8637 23.1241C80.8637 24.5281 83.2757 23.6641 83.2757 26.0761V44.4721C83.2757 46.8841 80.8637 45.9841 80.8637 47.3881C80.8637 47.7841 81.1517 48.1081 81.7637 48.1081C82.5917 48.1081 83.6717 48.0001 85.0397 48.0001C86.4077 48.0001 87.6317 48.1081 88.4237 48.1081C89.0717 48.1081 89.3237 47.7841 89.3237 47.3881C89.3237 45.9841 86.8757 46.8841 86.8757 44.4721V39.3601C86.8757 38.7841 87.0557 38.5321 87.7757 38.5681C89.1437 38.6401 90.4757 38.6401 91.8077 38.5681C92.3477 38.5321 92.8517 38.7481 93.2837 39.3241L96.8477 44.0041C97.2077 44.4721 97.4957 44.9041 97.4957 45.3721C97.4957 46.5601 95.5877 46.2361 95.5877 47.3521C95.5877 47.8561 95.9477 48.1081 96.6317 48.1081C97.5317 48.1081 98.9357 48.0001 100.232 48.0001C101.636 48.0001 103.22 48.1081 103.832 48.1081C104.408 48.1081 104.732 47.8201 104.732 47.3521C104.732 46.0201 102.716 46.5241 100.808 44.0041ZM90.5117 36.6961C87.4877 36.6961 86.8757 36.4441 86.8757 35.4361V26.1841C86.8757 24.7441 87.7757 24.3481 90.4757 24.3481C95.1197 24.3481 98.4677 26.5801 98.4677 30.6481C98.4677 35.5801 95.0117 36.6961 90.5117 36.6961Z" fill="white"/>
<path d="M135.935 44.7601L133.055 27.2641C132.911 26.5081 132.803 25.8241 132.803 25.4281C132.803 23.9161 134.927 24.4201 134.927 23.1241C134.927 22.7641 134.603 22.4041 133.955 22.4041C133.163 22.4041 132.047 22.5121 130.823 22.5121C129.491 22.5121 128.375 22.4041 127.511 22.4041C126.935 22.4041 126.575 22.7641 126.575 23.1601C126.575 24.4921 128.627 23.8081 128.627 25.5361C128.627 26.1121 128.339 26.9761 127.835 28.2361L122.651 40.9801L116.783 28.2361C116.207 26.9401 115.775 26.0761 115.775 25.5361C115.775 23.9881 117.683 24.4561 117.683 23.1601C117.683 22.7641 117.359 22.4041 116.711 22.4041C115.883 22.4041 114.803 22.5121 113.507 22.5121C112.247 22.5121 111.059 22.4041 110.303 22.4041C109.583 22.4041 109.259 22.7641 109.259 23.1241C109.259 24.4201 111.311 23.9161 111.311 25.5721C111.311 25.9681 111.311 26.6521 111.203 27.2641L108.395 44.7241C108.107 46.4161 105.623 46.0921 105.623 47.3521C105.623 47.8561 106.055 48.1081 106.595 48.1081C107.279 48.1081 108.143 48.0001 109.187 48.0001C110.303 48.0001 111.239 48.1081 111.995 48.1081C112.715 48.1081 113.075 47.8561 113.075 47.3521C113.075 46.2001 110.771 46.4521 110.771 45.2281C110.771 44.8321 110.843 44.5081 110.915 44.0041L113.219 28.8121L120.779 45.1201C121.067 45.7321 121.463 45.9121 121.967 45.9121C122.435 45.9121 122.903 45.7321 123.155 45.1201L129.743 28.9921L132.155 44.0041C132.227 44.4721 132.299 44.8321 132.299 45.2281C132.299 46.4521 129.959 46.2001 129.959 47.3521C129.959 47.8561 130.355 48.1081 131.039 48.1081C131.975 48.1081 133.127 48.0001 134.567 48.0001C136.115 48.0001 136.979 48.1081 137.555 48.1081C138.203 48.1081 138.635 47.8561 138.635 47.3521C138.635 46.0561 136.223 46.4161 135.935 44.7601Z" fill="white"/>
<path d="M30.7347 64.9101C29.2227 64.9101 28.1067 65.6481 27.4227 66.6381V60.8601C27.4227 60.6261 27.3147 60.3921 27.0627 60.3921C26.8467 60.3921 26.6127 60.4461 25.7127 60.8781C24.7227 61.3281 24.4167 61.5441 24.4167 61.8321C24.4167 62.5341 25.8027 61.9221 25.8027 63.0381V73.7121C25.8027 73.9821 25.9467 74.1801 26.1987 74.1801C26.5407 74.1801 27.0087 73.6581 27.5307 73.6581C28.0707 73.6581 28.8087 74.2341 30.2667 74.2341C32.7327 74.2341 34.8027 72.3621 34.8027 69.4281C34.8027 66.7101 33.1287 64.9101 30.7347 64.9101ZM30.2667 73.2801C28.6287 73.2801 27.4227 72.1641 27.4227 70.3641V69.0501C27.4227 67.1781 28.7367 66.1521 30.1227 66.1521C31.8867 66.1521 33.0927 67.8261 33.0927 70.0041C33.0927 72.2181 31.8327 73.2801 30.2667 73.2801Z" fill="white"/>
<path d="M44.8234 65.0901C44.3734 65.0901 43.9414 65.1441 43.4374 65.1441C42.9694 65.1441 42.4834 65.0901 42.1234 65.0901C41.8354 65.0901 41.6554 65.2161 41.6554 65.4681C41.6554 66.0621 42.7534 65.8461 42.7534 66.5841C42.7534 66.8541 42.6274 67.1601 42.4474 67.6461L40.5754 72.2361L38.6134 67.6461C38.4154 67.1781 38.3434 66.8001 38.3434 66.6561C38.3434 65.8281 39.3874 66.0621 39.3874 65.4681C39.3874 65.2161 39.2074 65.0901 38.9194 65.0901C38.5234 65.0901 38.0194 65.1441 37.3354 65.1441C36.5614 65.1441 36.0754 65.0901 35.6074 65.0901C35.3734 65.0901 35.1934 65.1981 35.1934 65.4321C35.1934 65.9901 36.0934 65.8281 36.5614 66.8901L39.7294 74.0001L39.6214 74.2701C39.1354 75.4581 38.5594 76.1601 37.9474 76.1601C37.4794 76.1601 37.0654 75.7641 36.5434 74.9541C36.3814 74.7201 36.2914 74.6121 36.0934 74.6121C35.8594 74.6121 35.7154 74.8281 35.7154 75.0981C35.7154 75.5661 36.0214 76.7001 36.2734 77.0421C36.4534 77.2761 36.9574 77.4381 37.5154 77.4381C38.8294 77.4381 39.8194 76.4661 40.5214 74.7921L43.8874 66.8541C44.3194 65.8281 45.2554 65.9901 45.2554 65.4321C45.2554 65.2161 45.0754 65.0901 44.8234 65.0901Z" fill="white"/>
<path d="M58.6874 74.3781C58.9934 74.3781 59.1914 74.0901 59.4074 73.6401L60.1634 72.0921C60.5414 71.2821 60.6674 70.9941 60.6674 70.7241C60.6674 70.4901 60.4874 70.3461 60.2894 70.3461C60.0734 70.3461 59.9294 70.5081 59.6774 70.7781C58.3634 72.1101 57.4814 73.0281 56.0054 73.0281H53.7734C53.2874 73.0281 53.0714 72.8301 53.0714 72.3441V63.0381C53.0714 61.8321 54.2594 62.2641 54.2594 61.5621C54.2594 61.3821 54.1334 61.2021 53.8094 61.2021C53.4134 61.2021 52.8374 61.2561 52.1534 61.2561C51.4694 61.2561 50.9474 61.2021 50.5334 61.2021C50.2094 61.2021 50.0654 61.3821 50.0654 61.5621C50.0654 62.2641 51.2714 61.8321 51.2714 63.0381V72.2361C51.2714 73.4421 50.0654 72.9921 50.0654 73.6761C50.0654 73.8921 50.2094 74.0541 50.5694 74.0541C50.8574 74.0541 51.5054 74.0001 52.1534 74.0001H57.5894C58.1834 74.0001 58.2374 74.3781 58.6874 74.3781Z" fill="white"/>
<path d="M62.7701 63.0921C63.6701 63.0921 64.4081 62.3361 64.4081 61.6521C64.4081 61.0761 63.9401 60.7341 63.4001 60.7341C62.5001 60.7341 61.8161 61.4901 61.8161 62.1741C61.8161 62.7681 62.2841 63.0921 62.7701 63.0921ZM61.7621 74.0541C62.1401 74.0541 62.6441 74.0001 63.2741 74.0001C63.9221 74.0001 64.4621 74.0541 64.8581 74.0541C65.1281 74.0541 65.2541 73.8561 65.2541 73.6941C65.2541 73.0101 64.0841 73.5321 64.0841 72.0741V65.6481C64.0841 65.2521 63.9941 65.0181 63.7061 65.0181C63.5621 65.0181 63.3641 65.0721 62.4461 65.5221C61.5101 65.9721 61.1861 66.1701 61.1861 66.4581C61.1861 67.1601 62.4641 66.5481 62.4641 67.6641V72.0741C62.4641 73.5321 61.3301 73.0101 61.3301 73.6941C61.3301 73.8561 61.4561 74.0541 61.7621 74.0541Z" fill="white"/>
<path d="M75.2335 65.0901C74.7835 65.0901 74.3335 65.1441 73.8475 65.1441C73.3615 65.1441 72.8935 65.0901 72.5335 65.0901C72.2455 65.0901 72.0655 65.2161 72.0655 65.4681C72.0655 66.0621 73.1635 65.8461 73.1635 66.5841C73.1635 66.8541 73.0375 67.1601 72.8575 67.6461L70.9675 72.4521L69.0235 67.6461C68.8255 67.1781 68.7535 66.8001 68.7535 66.6561C68.7535 65.8281 69.7975 66.0621 69.7975 65.4681C69.7975 65.2161 69.6175 65.0901 69.3295 65.0901C68.9335 65.0901 68.4295 65.1441 67.7455 65.1441C66.9715 65.1441 66.5035 65.0901 66.0355 65.0901C65.7835 65.0901 65.6035 65.1981 65.6035 65.4321C65.6035 66.0081 66.5215 65.8101 66.9355 66.8181L69.7615 73.5141C69.9415 73.9461 70.1035 74.0901 70.6435 74.0901C71.1655 74.0901 71.3275 73.9641 71.5075 73.5321L74.3335 66.7821C74.7295 65.8281 75.6655 66.0081 75.6655 65.4321C75.6655 65.2161 75.4855 65.0901 75.2335 65.0901Z" fill="white"/>
<path d="M84.0186 71.7141C83.8746 71.7141 83.7307 71.8041 83.5507 71.9841C82.9747 72.6321 82.0746 73.1001 81.0126 73.1001C79.5186 73.1001 78.3486 72.0561 77.8626 70.5801L83.6406 68.8521C83.9106 68.7621 84.0186 68.6541 84.0186 68.2761C84.0186 66.5121 82.5426 64.8201 80.3287 64.8201C77.9706 64.8201 75.9007 66.7821 75.9007 69.6081C75.9007 72.6141 77.9706 74.3241 80.4186 74.3241C81.9846 74.3241 83.5507 73.5141 84.2167 72.5601C84.3247 72.3801 84.3786 72.2361 84.3786 72.1281C84.3786 71.8941 84.2166 71.7141 84.0186 71.7141ZM80.0947 65.8641C81.3727 65.8641 82.2187 66.9801 82.2187 67.8801C82.2187 68.1861 82.1286 68.2761 81.8046 68.3661L77.6467 69.6621C77.6106 69.4281 77.5927 69.1941 77.5927 68.9421C77.5927 67.0881 78.6727 65.8641 80.0947 65.8641Z" fill="white"/>
<path d="M87.5791 74.0541C88.1011 74.0541 88.8031 74.0001 89.5231 74.0001C90.2611 74.0001 90.9451 74.0541 91.4671 74.0541C91.7731 74.0541 91.8991 73.8921 91.8991 73.6761C91.8991 72.9201 90.4231 73.4241 90.4231 72.2181V62.9841C90.4231 62.4621 90.5851 62.2281 91.1071 62.2281H91.7551C93.0511 62.2281 93.9691 62.8941 95.1571 64.2621C95.3731 64.5321 95.5171 64.6761 95.7331 64.6761C95.9311 64.6761 96.0931 64.5501 96.0931 64.2621C96.0931 64.0461 95.9671 63.7221 95.6971 63.0921L95.1391 61.7601C94.8511 61.1121 94.6711 60.8781 94.3471 60.8781C93.9691 60.8781 93.9151 61.2561 93.3931 61.2561H85.6531C85.1311 61.2561 85.0951 60.8781 84.6991 60.8781C84.3931 60.8781 84.1951 61.1121 83.9251 61.7601L83.3491 63.0921C83.0791 63.7221 82.9531 64.0461 82.9531 64.2621C82.9531 64.5501 83.1151 64.6761 83.3131 64.6761C83.5291 64.6761 83.6731 64.5321 83.9071 64.2621C85.0951 62.8941 86.0131 62.2281 87.2911 62.2281H87.9391C88.4611 62.2281 88.6231 62.4621 88.6231 62.9841V72.2181C88.6231 73.4241 87.1651 72.9201 87.1651 73.6761C87.1651 73.8921 87.2731 74.0541 87.5791 74.0541Z" fill="white"/>
<path d="M105.587 71.8941L105.137 68.5281C104.939 67.0521 104.435 64.9641 102.257 64.9641C100.889 64.9641 99.9527 65.7741 99.3767 66.7101V60.8601C99.3767 60.6081 99.2867 60.3921 99.0347 60.3921C98.8367 60.3921 98.6567 60.4461 97.7387 60.8781C96.7847 61.3281 96.4787 61.5441 96.4787 61.8321C96.4787 62.5341 97.7567 61.9221 97.7567 63.0381V72.0741C97.7567 73.5321 96.6227 73.0101 96.6227 73.6941C96.6227 73.8561 96.7487 74.0541 97.0367 74.0541C97.4327 74.0541 97.9367 74.0001 98.5667 74.0001C99.2147 74.0001 99.7547 74.0541 100.151 74.0541C100.421 74.0541 100.529 73.8561 100.529 73.6941C100.529 73.0101 99.3767 73.5321 99.3767 72.0741V69.0321C99.3767 67.1961 100.547 66.3321 101.627 66.3321C103.031 66.3321 103.373 67.8441 103.517 68.7621L103.949 71.8941C103.967 72.0381 103.985 72.2181 103.985 72.3621C103.985 73.4601 102.779 73.0281 102.779 73.6761C102.779 73.8921 102.977 74.0541 103.301 74.0541C103.787 74.0541 104.093 74.0001 104.849 74.0001C105.569 74.0001 105.929 74.0541 106.415 74.0541C106.685 74.0541 106.901 73.9461 106.901 73.7121C106.901 72.9921 105.821 73.5861 105.587 71.8941Z" fill="white"/>
<path d="M113.518 64.9461C112.24 64.9461 110.926 65.9721 110.332 67.5021V65.6481C110.332 65.2521 110.242 65.0181 109.954 65.0181C109.81 65.0181 109.612 65.0721 108.694 65.5221C107.758 65.9721 107.434 66.1701 107.434 66.4581C107.434 67.1601 108.712 66.5481 108.712 67.6641V72.0741C108.712 73.5321 107.578 73.0101 107.578 73.6941C107.578 73.8561 107.704 74.0541 108.01 74.0541C108.388 74.0541 108.892 74.0001 109.522 74.0001C110.26 74.0001 110.89 74.0541 111.34 74.0541C111.61 74.0541 111.736 73.8561 111.736 73.6941C111.736 72.9561 110.332 73.5321 110.332 72.0741V70.3641C110.332 67.8441 111.826 66.4581 112.69 66.4581C113.068 66.4581 113.302 66.7281 113.536 67.2861C113.644 67.5741 113.752 67.7721 113.986 67.7721C114.238 67.7721 114.382 67.5921 114.472 67.2861C114.688 66.4941 114.796 66.0441 114.796 65.7741C114.796 65.3241 114.274 64.9461 113.518 64.9461Z" fill="white"/>
<path d="M117.086 63.0921C117.986 63.0921 118.724 62.3361 118.724 61.6521C118.724 61.0761 118.256 60.7341 117.716 60.7341C116.816 60.7341 116.132 61.4901 116.132 62.1741C116.132 62.7681 116.6 63.0921 117.086 63.0921ZM116.078 74.0541C116.456 74.0541 116.96 74.0001 117.59 74.0001C118.238 74.0001 118.778 74.0541 119.174 74.0541C119.444 74.0541 119.57 73.8561 119.57 73.6941C119.57 73.0101 118.4 73.5321 118.4 72.0741V65.6481C118.4 65.2521 118.31 65.0181 118.022 65.0181C117.878 65.0181 117.68 65.0721 116.762 65.5221C115.826 65.9721 115.502 66.1701 115.502 66.4581C115.502 67.1601 116.78 66.5481 116.78 67.6641V72.0741C116.78 73.5321 115.646 73.0101 115.646 73.6941C115.646 73.8561 115.772 74.0541 116.078 74.0541Z" fill="white"/>
<path d="M129.55 65.0901C129.1 65.0901 128.65 65.1441 128.164 65.1441C127.678 65.1441 127.21 65.0901 126.85 65.0901C126.562 65.0901 126.382 65.2161 126.382 65.4681C126.382 66.0621 127.48 65.8461 127.48 66.5841C127.48 66.8541 127.354 67.1601 127.174 67.6461L125.284 72.4521L123.34 67.6461C123.142 67.1781 123.07 66.8001 123.07 66.6561C123.07 65.8281 124.114 66.0621 124.114 65.4681C124.114 65.2161 123.934 65.0901 123.646 65.0901C123.25 65.0901 122.746 65.1441 122.062 65.1441C121.288 65.1441 120.82 65.0901 120.352 65.0901C120.1 65.0901 119.92 65.1981 119.92 65.4321C119.92 66.0081 120.838 65.8101 121.252 66.8181L124.078 73.5141C124.258 73.9461 124.42 74.0901 124.96 74.0901C125.482 74.0901 125.644 73.9641 125.824 73.5321L128.65 66.7821C129.046 65.8281 129.982 66.0081 129.982 65.4321C129.982 65.2161 129.802 65.0901 129.55 65.0901Z" fill="white"/>
<path d="M138.335 71.7141C138.191 71.7141 138.047 71.8041 137.867 71.9841C137.291 72.6321 136.391 73.1001 135.329 73.1001C133.835 73.1001 132.665 72.0561 132.179 70.5801L137.957 68.8521C138.227 68.7621 138.335 68.6541 138.335 68.2761C138.335 66.5121 136.859 64.8201 134.645 64.8201C132.287 64.8201 130.217 66.7821 130.217 69.6081C130.217 72.6141 132.287 74.3241 134.735 74.3241C136.301 74.3241 137.867 73.5141 138.533 72.5601C138.641 72.3801 138.695 72.2361 138.695 72.1281C138.695 71.8941 138.533 71.7141 138.335 71.7141ZM134.411 65.8641C135.689 65.8641 136.535 66.9801 136.535 67.8801C136.535 68.1861 136.445 68.2761 136.121 68.3661L131.963 69.6621C131.927 69.4281 131.909 69.1941 131.909 68.9421C131.909 67.0881 132.989 65.8641 134.411 65.8641Z" fill="white"/>
<path d="M141.769 20.5823C144.712 19.0902 151.53 18.0846 155.258 25.9997C152.315 27.4919 145.497 28.4973 141.769 20.5823Z" fill="white"/>
<path d="M139.005 14.9186C138.909 9.94439 141.972 0.0268777 154.988 0.150467C155.083 5.12467 152.02 15.0422 139.005 14.9186Z" fill="white"/>
</svg>
