<svg width="35" height="31" viewBox="0 0 35 31" fill="none" xmlns="http://www.w3.org/2000/svg">
<path d="M0 8H35V31H0V8Z" fill="#E2D6BF"/>
<path d="M20.3006 25.8506C20.2232 25.8506 20.144 25.8398 20.0666 25.82C19.6742 25.7138 19.4006 25.3574 19.4006 24.9506V11.4499H5.90046C5.49366 11.4499 5.13725 11.1763 5.03105 10.7839C4.92485 10.3915 5.09765 9.97567 5.44866 9.77226L28.7706 0.120764C29.1234 -0.0826455 29.5698 -0.0250401 29.8578 0.26297C30.1458 0.550983 30.2052 0.997404 30 1.35022L21.0782 25.4024C20.9144 25.685 20.6138 25.8506 20.2988 25.8506H20.3006ZM9.2521 9.64985H20.3006C20.7974 9.64985 21.2006 10.0531 21.2006 10.5499V21.5988L26.7528 3.36811L9.2521 9.64985Z" fill="black"/>
</svg>
