<svg width="37" height="50" viewBox="0 0 37 50" fill="none" xmlns="http://www.w3.org/2000/svg">
<path d="M1.96 32.432V41H3.04V33.872H3.064L5.74 41H6.712L9.388 33.872H9.412V41H10.492V32.432H8.932L6.22 39.632L3.52 32.432H1.96ZM17.3071 40.976C17.1311 41.08 16.8871 41.132 16.5751 41.132C16.3111 41.132 16.0991 41.06 15.9391 40.916C15.7871 40.764 15.7111 40.52 15.7111 40.184C15.4311 40.52 15.1031 40.764 14.7271 40.916C14.3591 41.06 13.9591 41.132 13.5271 41.132C13.2471 41.132 12.9791 41.1 12.7231 41.036C12.4751 40.972 12.2591 40.872 12.0751 40.736C11.8911 40.6 11.7431 40.424 11.6311 40.208C11.5271 39.984 11.4751 39.716 11.4751 39.404C11.4751 39.052 11.5351 38.764 11.6551 38.54C11.7751 38.316 11.9311 38.136 12.1231 38C12.3231 37.856 12.5471 37.748 12.7951 37.676C13.0511 37.604 13.3111 37.544 13.5751 37.496C13.8551 37.44 14.1191 37.4 14.3671 37.376C14.6231 37.344 14.8471 37.304 15.0391 37.256C15.2311 37.2 15.3831 37.124 15.4951 37.028C15.6071 36.924 15.6631 36.776 15.6631 36.584C15.6631 36.36 15.6191 36.18 15.5311 36.044C15.4511 35.908 15.3431 35.804 15.2071 35.732C15.0791 35.66 14.9311 35.612 14.7631 35.588C14.6031 35.564 14.4431 35.552 14.2831 35.552C13.8511 35.552 13.4911 35.636 13.2031 35.804C12.9151 35.964 12.7591 36.272 12.7351 36.728H11.7151C11.7311 36.344 11.8111 36.02 11.9551 35.756C12.0991 35.492 12.2911 35.28 12.5311 35.12C12.7711 34.952 13.0431 34.832 13.3471 34.76C13.6591 34.688 13.9911 34.652 14.3431 34.652C14.6231 34.652 14.8991 34.672 15.1711 34.712C15.4511 34.752 15.7031 34.836 15.9271 34.964C16.1511 35.084 16.3311 35.256 16.4671 35.48C16.6031 35.704 16.6711 35.996 16.6711 36.356V39.548C16.6711 39.788 16.6831 39.964 16.7071 40.076C16.7391 40.188 16.8351 40.244 16.9951 40.244C17.0831 40.244 17.1871 40.224 17.3071 40.184V40.976ZM15.6511 37.796C15.5231 37.892 15.3551 37.964 15.1471 38.012C14.9391 38.052 14.7191 38.088 14.4871 38.12C14.2631 38.144 14.0351 38.176 13.8031 38.216C13.5711 38.248 13.3631 38.304 13.1791 38.384C12.9951 38.464 12.8431 38.58 12.7231 38.732C12.6111 38.876 12.5551 39.076 12.5551 39.332C12.5551 39.5 12.5871 39.644 12.6511 39.764C12.7231 39.876 12.8111 39.968 12.9151 40.04C13.0271 40.112 13.1551 40.164 13.2991 40.196C13.4431 40.228 13.5951 40.244 13.7551 40.244C14.0911 40.244 14.3791 40.2 14.6191 40.112C14.8591 40.016 15.0551 39.9 15.2071 39.764C15.3591 39.62 15.4711 39.468 15.5431 39.308C15.6151 39.14 15.6511 38.984 15.6511 38.84V37.796ZM17.8824 34.796V43.364H18.9024V40.172H18.9264C19.0384 40.356 19.1744 40.512 19.3344 40.64C19.5024 40.76 19.6784 40.856 19.8624 40.928C20.0464 41 20.2304 41.052 20.4144 41.084C20.6064 41.116 20.7784 41.132 20.9304 41.132C21.4024 41.132 21.8144 41.048 22.1664 40.88C22.5264 40.712 22.8224 40.484 23.0544 40.196C23.2944 39.9 23.4704 39.556 23.5824 39.164C23.7024 38.772 23.7624 38.356 23.7624 37.916C23.7624 37.476 23.7024 37.06 23.5824 36.668C23.4624 36.276 23.2824 35.932 23.0424 35.636C22.8104 35.332 22.5144 35.092 22.1544 34.916C21.8024 34.74 21.3864 34.652 20.9064 34.652C20.4744 34.652 20.0784 34.732 19.7184 34.892C19.3584 35.044 19.0944 35.292 18.9264 35.636H18.9024V34.796H17.8824ZM22.6824 37.844C22.6824 38.148 22.6504 38.444 22.5864 38.732C22.5224 39.02 22.4184 39.276 22.2744 39.5C22.1304 39.724 21.9384 39.904 21.6984 40.04C21.4664 40.176 21.1744 40.244 20.8224 40.244C20.4704 40.244 20.1704 40.18 19.9224 40.052C19.6744 39.916 19.4704 39.74 19.3104 39.524C19.1584 39.308 19.0464 39.06 18.9744 38.78C18.9024 38.492 18.8664 38.196 18.8664 37.892C18.8664 37.604 18.8984 37.32 18.9624 37.04C19.0344 36.76 19.1464 36.512 19.2984 36.296C19.4504 36.072 19.6464 35.892 19.8864 35.756C20.1264 35.62 20.4184 35.552 20.7624 35.552C21.0904 35.552 21.3744 35.616 21.6144 35.744C21.8624 35.872 22.0624 36.044 22.2144 36.26C22.3744 36.476 22.4904 36.724 22.5624 37.004C22.6424 37.276 22.6824 37.556 22.6824 37.844Z" fill="white"/>
<path d="M15.3006 25.8506C15.2232 25.8506 15.144 25.8398 15.0666 25.82C14.6742 25.7138 14.4006 25.3574 14.4006 24.9506V11.4499H0.900462C0.493657 11.4499 0.137253 11.1763 0.0310522 10.7839C-0.075149 10.3915 0.0976529 9.97567 0.448657 9.77226L23.7706 0.120764C24.1234 -0.0826455 24.5698 -0.0250401 24.8578 0.26297C25.1458 0.550983 25.2052 0.997404 25 1.35022L16.0782 25.4024C15.9144 25.685 15.6138 25.8506 15.2988 25.8506H15.3006ZM4.2521 9.64985H15.3006C15.7974 9.64985 16.2006 10.0531 16.2006 10.5499V21.5988L21.7528 3.36811L4.2521 9.64985Z" fill="white"/>
</svg>
